<svg width="50" height="50" viewBox="0 0 50 50" fill="none" xmlns="http://www.w3.org/2000/svg">
<rect width="50" height="50" rx="25" fill="#04D28C"/>
<path d="M26.2696 35C24.703 35 23.2591 34.7552 21.9379 34.2654C20.6356 33.7569 19.4937 33.0412 18.5122 32.1183C17.5496 31.1954 16.7947 30.1124 16.2473 28.8693C15.7188 27.6262 15.4546 26.2607 15.4546 24.7727C15.4546 23.2848 15.7188 21.9193 16.2473 20.6762C16.7947 19.4331 17.5591 18.3501 18.5405 17.4272C19.522 16.5043 20.6733 15.798 21.9946 15.3083C23.3158 14.7997 24.7691 14.5455 26.3545 14.5455C28.1098 14.5455 29.6858 14.8374 31.0826 15.4213C32.4981 16.0051 33.6872 16.8527 34.6498 17.964L31.7054 20.6762C30.9882 19.9228 30.2049 19.3672 29.3555 19.0093C28.5062 18.6326 27.5814 18.4443 26.581 18.4443C25.6184 18.4443 24.7408 18.5949 23.948 18.8963C23.1553 19.1976 22.4664 19.6308 21.8813 20.1959C21.3151 20.7609 20.8715 21.4296 20.5507 22.2018C20.2487 22.974 20.0977 23.831 20.0977 24.7727C20.0977 25.6956 20.2487 26.5432 20.5507 27.3154C20.8715 28.0876 21.3151 28.7657 21.8813 29.3496C22.4664 29.9146 23.1459 30.3478 23.9197 30.6492C24.7125 30.9505 25.5807 31.1012 26.5244 31.1012C27.4304 31.1012 28.308 30.9599 29.1574 30.6774C30.0256 30.3761 30.8655 29.8769 31.6771 29.1801L34.2818 32.4856C33.2059 33.2955 31.9508 33.917 30.5163 34.3502C29.1007 34.7834 27.6852 35 26.2696 35ZM30.0916 31.8923V24.462H34.2818V32.4856L30.0916 31.8923Z" fill="#001726"/>
</svg>
